<?xml version="1.0" encoding="utf-8" standalone="no"?>
<!DOCTYPE svg PUBLIC "-//W3C//DTD SVG 1.1//EN"
  "http://www.w3.org/Graphics/SVG/1.1/DTD/svg11.dtd">
<!-- Created with matplotlib (https://matplotlib.org/) -->
<svg height="352.514531pt" version="1.1" viewBox="0 0 568.38125 352.514531" width="568.38125pt" xmlns="http://www.w3.org/2000/svg" xmlns:xlink="http://www.w3.org/1999/xlink">
 <metadata>
  <rdf:RDF xmlns:cc="http://creativecommons.org/ns#" xmlns:dc="http://purl.org/dc/elements/1.1/" xmlns:rdf="http://www.w3.org/1999/02/22-rdf-syntax-ns#">
   <cc:Work>
    <dc:type rdf:resource="http://purl.org/dc/dcmitype/StillImage"/>
    <dc:date>2021-03-04T04:12:33.038141</dc:date>
    <dc:format>image/svg+xml</dc:format>
    <dc:creator>
     <cc:Agent>
      <dc:title>Matplotlib v3.3.4, https://matplotlib.org/</dc:title>
     </cc:Agent>
    </dc:creator>
   </cc:Work>
  </rdf:RDF>
 </metadata>
 <defs>
  <style type="text/css">*{stroke-linecap:butt;stroke-linejoin:round;}</style>
 </defs>
 <g id="figure_1">
  <g id="patch_1">
   <path d="M 0 352.514531 
L 568.38125 352.514531 
L 568.38125 0 
L 0 0 
z
" style="fill:none;"/>
  </g>
  <g id="axes_1">
   <g id="patch_2">
    <path d="M 43.78125 314.958281 
L 561.18125 314.958281 
L 561.18125 21.558281 
L 43.78125 21.558281 
z
" style="fill:#ffffff;"/>
   </g>
   <g id="matplotlib.axis_1">
    <g id="xtick_1">
     <g id="line2d_1">
      <defs>
       <path d="M 0 0 
L 0 3.5 
" id="m5a0b11f175" style="stroke:#000000;stroke-width:0.8;"/>
      </defs>
      <g>
       <use style="stroke:#000000;stroke-width:0.8;" x="65.924055" xlink:href="#m5a0b11f175" y="314.958281"/>
      </g>
     </g>
     <g id="text_1">
      <!-- 0 -->
      <g transform="translate(62.742805 329.556719)scale(0.1 -0.1)">
       <defs>
        <path d="M 31.78125 66.40625 
Q 24.171875 66.40625 20.328125 58.90625 
Q 16.5 51.421875 16.5 36.375 
Q 16.5 21.390625 20.328125 13.890625 
Q 24.171875 6.390625 31.78125 6.390625 
Q 39.453125 6.390625 43.28125 13.890625 
Q 47.125 21.390625 47.125 36.375 
Q 47.125 51.421875 43.28125 58.90625 
Q 39.453125 66.40625 31.78125 66.40625 
z
M 31.78125 74.21875 
Q 44.046875 74.21875 50.515625 64.515625 
Q 56.984375 54.828125 56.984375 36.375 
Q 56.984375 17.96875 50.515625 8.265625 
Q 44.046875 -1.421875 31.78125 -1.421875 
Q 19.53125 -1.421875 13.0625 8.265625 
Q 6.59375 17.96875 6.59375 36.375 
Q 6.59375 54.828125 13.0625 64.515625 
Q 19.53125 74.21875 31.78125 74.21875 
z
" id="DejaVuSans-48"/>
       </defs>
       <use xlink:href="#DejaVuSans-48"/>
      </g>
     </g>
    </g>
    <g id="xtick_2">
     <g id="line2d_2">
      <g>
       <use style="stroke:#000000;stroke-width:0.8;" x="125.984121" xlink:href="#m5a0b11f175" y="314.958281"/>
      </g>
     </g>
     <g id="text_2">
      <!-- 2 -->
      <g transform="translate(122.802871 329.556719)scale(0.1 -0.1)">
       <defs>
        <path d="M 19.1875 8.296875 
L 53.609375 8.296875 
L 53.609375 0 
L 7.328125 0 
L 7.328125 8.296875 
Q 12.9375 14.109375 22.625 23.890625 
Q 32.328125 33.6875 34.8125 36.53125 
Q 39.546875 41.84375 41.421875 45.53125 
Q 43.3125 49.21875 43.3125 52.78125 
Q 43.3125 58.59375 39.234375 62.25 
Q 35.15625 65.921875 28.609375 65.921875 
Q 23.96875 65.921875 18.8125 64.3125 
Q 13.671875 62.703125 7.8125 59.421875 
L 7.8125 69.390625 
Q 13.765625 71.78125 18.9375 73 
Q 24.125 74.21875 28.421875 74.21875 
Q 39.75 74.21875 46.484375 68.546875 
Q 53.21875 62.890625 53.21875 53.421875 
Q 53.21875 48.921875 51.53125 44.890625 
Q 49.859375 40.875 45.40625 35.40625 
Q 44.1875 33.984375 37.640625 27.21875 
Q 31.109375 20.453125 19.1875 8.296875 
z
" id="DejaVuSans-50"/>
       </defs>
       <use xlink:href="#DejaVuSans-50"/>
      </g>
     </g>
    </g>
    <g id="xtick_3">
     <g id="line2d_3">
      <g>
       <use style="stroke:#000000;stroke-width:0.8;" x="186.044186" xlink:href="#m5a0b11f175" y="314.958281"/>
      </g>
     </g>
     <g id="text_3">
      <!-- 4 -->
      <g transform="translate(182.862936 329.556719)scale(0.1 -0.1)">
       <defs>
        <path d="M 37.796875 64.3125 
L 12.890625 25.390625 
L 37.796875 25.390625 
z
M 35.203125 72.90625 
L 47.609375 72.90625 
L 47.609375 25.390625 
L 58.015625 25.390625 
L 58.015625 17.1875 
L 47.609375 17.1875 
L 47.609375 0 
L 37.796875 0 
L 37.796875 17.1875 
L 4.890625 17.1875 
L 4.890625 26.703125 
z
" id="DejaVuSans-52"/>
       </defs>
       <use xlink:href="#DejaVuSans-52"/>
      </g>
     </g>
    </g>
    <g id="xtick_4">
     <g id="line2d_4">
      <g>
       <use style="stroke:#000000;stroke-width:0.8;" x="246.104252" xlink:href="#m5a0b11f175" y="314.958281"/>
      </g>
     </g>
     <g id="text_4">
      <!-- 6 -->
      <g transform="translate(242.923002 329.556719)scale(0.1 -0.1)">
       <defs>
        <path d="M 33.015625 40.375 
Q 26.375 40.375 22.484375 35.828125 
Q 18.609375 31.296875 18.609375 23.390625 
Q 18.609375 15.53125 22.484375 10.953125 
Q 26.375 6.390625 33.015625 6.390625 
Q 39.65625 6.390625 43.53125 10.953125 
Q 47.40625 15.53125 47.40625 23.390625 
Q 47.40625 31.296875 43.53125 35.828125 
Q 39.65625 40.375 33.015625 40.375 
z
M 52.59375 71.296875 
L 52.59375 62.3125 
Q 48.875 64.0625 45.09375 64.984375 
Q 41.3125 65.921875 37.59375 65.921875 
Q 27.828125 65.921875 22.671875 59.328125 
Q 17.53125 52.734375 16.796875 39.40625 
Q 19.671875 43.65625 24.015625 45.921875 
Q 28.375 48.1875 33.59375 48.1875 
Q 44.578125 48.1875 50.953125 41.515625 
Q 57.328125 34.859375 57.328125 23.390625 
Q 57.328125 12.15625 50.6875 5.359375 
Q 44.046875 -1.421875 33.015625 -1.421875 
Q 20.359375 -1.421875 13.671875 8.265625 
Q 6.984375 17.96875 6.984375 36.375 
Q 6.984375 53.65625 15.1875 63.9375 
Q 23.390625 74.21875 37.203125 74.21875 
Q 40.921875 74.21875 44.703125 73.484375 
Q 48.484375 72.75 52.59375 71.296875 
z
" id="DejaVuSans-54"/>
       </defs>
       <use xlink:href="#DejaVuSans-54"/>
      </g>
     </g>
    </g>
    <g id="xtick_5">
     <g id="line2d_5">
      <g>
       <use style="stroke:#000000;stroke-width:0.8;" x="306.164318" xlink:href="#m5a0b11f175" y="314.958281"/>
      </g>
     </g>
     <g id="text_5">
      <!-- 8 -->
      <g transform="translate(302.983068 329.556719)scale(0.1 -0.1)">
       <defs>
        <path d="M 31.78125 34.625 
Q 24.75 34.625 20.71875 30.859375 
Q 16.703125 27.09375 16.703125 20.515625 
Q 16.703125 13.921875 20.71875 10.15625 
Q 24.75 6.390625 31.78125 6.390625 
Q 38.8125 6.390625 42.859375 10.171875 
Q 46.921875 13.96875 46.921875 20.515625 
Q 46.921875 27.09375 42.890625 30.859375 
Q 38.875 34.625 31.78125 34.625 
z
M 21.921875 38.8125 
Q 15.578125 40.375 12.03125 44.71875 
Q 8.5 49.078125 8.5 55.328125 
Q 8.5 64.0625 14.71875 69.140625 
Q 20.953125 74.21875 31.78125 74.21875 
Q 42.671875 74.21875 48.875 69.140625 
Q 55.078125 64.0625 55.078125 55.328125 
Q 55.078125 49.078125 51.53125 44.71875 
Q 48 40.375 41.703125 38.8125 
Q 48.828125 37.15625 52.796875 32.3125 
Q 56.78125 27.484375 56.78125 20.515625 
Q 56.78125 9.90625 50.3125 4.234375 
Q 43.84375 -1.421875 31.78125 -1.421875 
Q 19.734375 -1.421875 13.25 4.234375 
Q 6.78125 9.90625 6.78125 20.515625 
Q 6.78125 27.484375 10.78125 32.3125 
Q 14.796875 37.15625 21.921875 38.8125 
z
M 18.3125 54.390625 
Q 18.3125 48.734375 21.84375 45.5625 
Q 25.390625 42.390625 31.78125 42.390625 
Q 38.140625 42.390625 41.71875 45.5625 
Q 45.3125 48.734375 45.3125 54.390625 
Q 45.3125 60.0625 41.71875 63.234375 
Q 38.140625 66.40625 31.78125 66.40625 
Q 25.390625 66.40625 21.84375 63.234375 
Q 18.3125 60.0625 18.3125 54.390625 
z
" id="DejaVuSans-56"/>
       </defs>
       <use xlink:href="#DejaVuSans-56"/>
      </g>
     </g>
    </g>
    <g id="xtick_6">
     <g id="line2d_6">
      <g>
       <use style="stroke:#000000;stroke-width:0.8;" x="366.224384" xlink:href="#m5a0b11f175" y="314.958281"/>
      </g>
     </g>
     <g id="text_6">
      <!-- 10 -->
      <g transform="translate(359.861884 329.556719)scale(0.1 -0.1)">
       <defs>
        <path d="M 12.40625 8.296875 
L 28.515625 8.296875 
L 28.515625 63.921875 
L 10.984375 60.40625 
L 10.984375 69.390625 
L 28.421875 72.90625 
L 38.28125 72.90625 
L 38.28125 8.296875 
L 54.390625 8.296875 
L 54.390625 0 
L 12.40625 0 
z
" id="DejaVuSans-49"/>
       </defs>
       <use xlink:href="#DejaVuSans-49"/>
       <use x="63.623047" xlink:href="#DejaVuSans-48"/>
      </g>
     </g>
    </g>
    <g id="xtick_7">
     <g id="line2d_7">
      <g>
       <use style="stroke:#000000;stroke-width:0.8;" x="426.284449" xlink:href="#m5a0b11f175" y="314.958281"/>
      </g>
     </g>
     <g id="text_7">
      <!-- 12 -->
      <g transform="translate(419.921949 329.556719)scale(0.1 -0.1)">
       <use xlink:href="#DejaVuSans-49"/>
       <use x="63.623047" xlink:href="#DejaVuSans-50"/>
      </g>
     </g>
    </g>
    <g id="xtick_8">
     <g id="line2d_8">
      <g>
       <use style="stroke:#000000;stroke-width:0.8;" x="486.344515" xlink:href="#m5a0b11f175" y="314.958281"/>
      </g>
     </g>
     <g id="text_8">
      <!-- 14 -->
      <g transform="translate(479.982015 329.556719)scale(0.1 -0.1)">
       <use xlink:href="#DejaVuSans-49"/>
       <use x="63.623047" xlink:href="#DejaVuSans-52"/>
      </g>
     </g>
    </g>
    <g id="xtick_9">
     <g id="line2d_9">
      <g>
       <use style="stroke:#000000;stroke-width:0.8;" x="546.404581" xlink:href="#m5a0b11f175" y="314.958281"/>
      </g>
     </g>
     <g id="text_9">
      <!-- 16 -->
      <g transform="translate(540.042081 329.556719)scale(0.1 -0.1)">
       <use xlink:href="#DejaVuSans-49"/>
       <use x="63.623047" xlink:href="#DejaVuSans-54"/>
      </g>
     </g>
    </g>
    <g id="text_10">
     <!-- Wind speed (m/s) -->
     <g transform="translate(258.572656 343.234844)scale(0.1 -0.1)">
      <defs>
       <path d="M 3.328125 72.90625 
L 13.28125 72.90625 
L 28.609375 11.28125 
L 43.890625 72.90625 
L 54.984375 72.90625 
L 70.3125 11.28125 
L 85.59375 72.90625 
L 95.609375 72.90625 
L 77.296875 0 
L 64.890625 0 
L 49.515625 63.28125 
L 33.984375 0 
L 21.578125 0 
z
" id="DejaVuSans-87"/>
       <path d="M 9.421875 54.6875 
L 18.40625 54.6875 
L 18.40625 0 
L 9.421875 0 
z
M 9.421875 75.984375 
L 18.40625 75.984375 
L 18.40625 64.59375 
L 9.421875 64.59375 
z
" id="DejaVuSans-105"/>
       <path d="M 54.890625 33.015625 
L 54.890625 0 
L 45.90625 0 
L 45.90625 32.71875 
Q 45.90625 40.484375 42.875 44.328125 
Q 39.84375 48.1875 33.796875 48.1875 
Q 26.515625 48.1875 22.3125 43.546875 
Q 18.109375 38.921875 18.109375 30.90625 
L 18.109375 0 
L 9.078125 0 
L 9.078125 54.6875 
L 18.109375 54.6875 
L 18.109375 46.1875 
Q 21.34375 51.125 25.703125 53.5625 
Q 30.078125 56 35.796875 56 
Q 45.21875 56 50.046875 50.171875 
Q 54.890625 44.34375 54.890625 33.015625 
z
" id="DejaVuSans-110"/>
       <path d="M 45.40625 46.390625 
L 45.40625 75.984375 
L 54.390625 75.984375 
L 54.390625 0 
L 45.40625 0 
L 45.40625 8.203125 
Q 42.578125 3.328125 38.25 0.953125 
Q 33.9375 -1.421875 27.875 -1.421875 
Q 17.96875 -1.421875 11.734375 6.484375 
Q 5.515625 14.40625 5.515625 27.296875 
Q 5.515625 40.1875 11.734375 48.09375 
Q 17.96875 56 27.875 56 
Q 33.9375 56 38.25 53.625 
Q 42.578125 51.265625 45.40625 46.390625 
z
M 14.796875 27.296875 
Q 14.796875 17.390625 18.875 11.75 
Q 22.953125 6.109375 30.078125 6.109375 
Q 37.203125 6.109375 41.296875 11.75 
Q 45.40625 17.390625 45.40625 27.296875 
Q 45.40625 37.203125 41.296875 42.84375 
Q 37.203125 48.484375 30.078125 48.484375 
Q 22.953125 48.484375 18.875 42.84375 
Q 14.796875 37.203125 14.796875 27.296875 
z
" id="DejaVuSans-100"/>
       <path id="DejaVuSans-32"/>
       <path d="M 44.28125 53.078125 
L 44.28125 44.578125 
Q 40.484375 46.53125 36.375 47.5 
Q 32.28125 48.484375 27.875 48.484375 
Q 21.1875 48.484375 17.84375 46.4375 
Q 14.5 44.390625 14.5 40.28125 
Q 14.5 37.15625 16.890625 35.375 
Q 19.28125 33.59375 26.515625 31.984375 
L 29.59375 31.296875 
Q 39.15625 29.25 43.1875 25.515625 
Q 47.21875 21.78125 47.21875 15.09375 
Q 47.21875 7.46875 41.1875 3.015625 
Q 35.15625 -1.421875 24.609375 -1.421875 
Q 20.21875 -1.421875 15.453125 -0.5625 
Q 10.6875 0.296875 5.421875 2 
L 5.421875 11.28125 
Q 10.40625 8.6875 15.234375 7.390625 
Q 20.0625 6.109375 24.8125 6.109375 
Q 31.15625 6.109375 34.5625 8.28125 
Q 37.984375 10.453125 37.984375 14.40625 
Q 37.984375 18.0625 35.515625 20.015625 
Q 33.0625 21.96875 24.703125 23.78125 
L 21.578125 24.515625 
Q 13.234375 26.265625 9.515625 29.90625 
Q 5.8125 33.546875 5.8125 39.890625 
Q 5.8125 47.609375 11.28125 51.796875 
Q 16.75 56 26.8125 56 
Q 31.78125 56 36.171875 55.265625 
Q 40.578125 54.546875 44.28125 53.078125 
z
" id="DejaVuSans-115"/>
       <path d="M 18.109375 8.203125 
L 18.109375 -20.796875 
L 9.078125 -20.796875 
L 9.078125 54.6875 
L 18.109375 54.6875 
L 18.109375 46.390625 
Q 20.953125 51.265625 25.265625 53.625 
Q 29.59375 56 35.59375 56 
Q 45.5625 56 51.78125 48.09375 
Q 58.015625 40.1875 58.015625 27.296875 
Q 58.015625 14.40625 51.78125 6.484375 
Q 45.5625 -1.421875 35.59375 -1.421875 
Q 29.59375 -1.421875 25.265625 0.953125 
Q 20.953125 3.328125 18.109375 8.203125 
z
M 48.6875 27.296875 
Q 48.6875 37.203125 44.609375 42.84375 
Q 40.53125 48.484375 33.40625 48.484375 
Q 26.265625 48.484375 22.1875 42.84375 
Q 18.109375 37.203125 18.109375 27.296875 
Q 18.109375 17.390625 22.1875 11.75 
Q 26.265625 6.109375 33.40625 6.109375 
Q 40.53125 6.109375 44.609375 11.75 
Q 48.6875 17.390625 48.6875 27.296875 
z
" id="DejaVuSans-112"/>
       <path d="M 56.203125 29.59375 
L 56.203125 25.203125 
L 14.890625 25.203125 
Q 15.484375 15.921875 20.484375 11.0625 
Q 25.484375 6.203125 34.421875 6.203125 
Q 39.59375 6.203125 44.453125 7.46875 
Q 49.3125 8.734375 54.109375 11.28125 
L 54.109375 2.78125 
Q 49.265625 0.734375 44.1875 -0.34375 
Q 39.109375 -1.421875 33.890625 -1.421875 
Q 20.796875 -1.421875 13.15625 6.1875 
Q 5.515625 13.8125 5.515625 26.8125 
Q 5.515625 40.234375 12.765625 48.109375 
Q 20.015625 56 32.328125 56 
Q 43.359375 56 49.78125 48.890625 
Q 56.203125 41.796875 56.203125 29.59375 
z
M 47.21875 32.234375 
Q 47.125 39.59375 43.09375 43.984375 
Q 39.0625 48.390625 32.421875 48.390625 
Q 24.90625 48.390625 20.390625 44.140625 
Q 15.875 39.890625 15.1875 32.171875 
z
" id="DejaVuSans-101"/>
       <path d="M 31 75.875 
Q 24.46875 64.65625 21.28125 53.65625 
Q 18.109375 42.671875 18.109375 31.390625 
Q 18.109375 20.125 21.3125 9.0625 
Q 24.515625 -2 31 -13.1875 
L 23.1875 -13.1875 
Q 15.875 -1.703125 12.234375 9.375 
Q 8.59375 20.453125 8.59375 31.390625 
Q 8.59375 42.28125 12.203125 53.3125 
Q 15.828125 64.359375 23.1875 75.875 
z
" id="DejaVuSans-40"/>
       <path d="M 52 44.1875 
Q 55.375 50.25 60.0625 53.125 
Q 64.75 56 71.09375 56 
Q 79.640625 56 84.28125 50.015625 
Q 88.921875 44.046875 88.921875 33.015625 
L 88.921875 0 
L 79.890625 0 
L 79.890625 32.71875 
Q 79.890625 40.578125 77.09375 44.375 
Q 74.3125 48.1875 68.609375 48.1875 
Q 61.625 48.1875 57.5625 43.546875 
Q 53.515625 38.921875 53.515625 30.90625 
L 53.515625 0 
L 44.484375 0 
L 44.484375 32.71875 
Q 44.484375 40.625 41.703125 44.40625 
Q 38.921875 48.1875 33.109375 48.1875 
Q 26.21875 48.1875 22.15625 43.53125 
Q 18.109375 38.875 18.109375 30.90625 
L 18.109375 0 
L 9.078125 0 
L 9.078125 54.6875 
L 18.109375 54.6875 
L 18.109375 46.1875 
Q 21.1875 51.21875 25.484375 53.609375 
Q 29.78125 56 35.6875 56 
Q 41.65625 56 45.828125 52.96875 
Q 50 49.953125 52 44.1875 
z
" id="DejaVuSans-109"/>
       <path d="M 25.390625 72.90625 
L 33.6875 72.90625 
L 8.296875 -9.28125 
L 0 -9.28125 
z
" id="DejaVuSans-47"/>
       <path d="M 8.015625 75.875 
L 15.828125 75.875 
Q 23.140625 64.359375 26.78125 53.3125 
Q 30.421875 42.28125 30.421875 31.390625 
Q 30.421875 20.453125 26.78125 9.375 
Q 23.140625 -1.703125 15.828125 -13.1875 
L 8.015625 -13.1875 
Q 14.5 -2 17.703125 9.0625 
Q 20.90625 20.125 20.90625 31.390625 
Q 20.90625 42.671875 17.703125 53.65625 
Q 14.5 64.65625 8.015625 75.875 
z
" id="DejaVuSans-41"/>
      </defs>
      <use xlink:href="#DejaVuSans-87"/>
      <use x="96.626953" xlink:href="#DejaVuSans-105"/>
      <use x="124.410156" xlink:href="#DejaVuSans-110"/>
      <use x="187.789062" xlink:href="#DejaVuSans-100"/>
      <use x="251.265625" xlink:href="#DejaVuSans-32"/>
      <use x="283.052734" xlink:href="#DejaVuSans-115"/>
      <use x="335.152344" xlink:href="#DejaVuSans-112"/>
      <use x="398.628906" xlink:href="#DejaVuSans-101"/>
      <use x="460.152344" xlink:href="#DejaVuSans-101"/>
      <use x="521.675781" xlink:href="#DejaVuSans-100"/>
      <use x="585.152344" xlink:href="#DejaVuSans-32"/>
      <use x="616.939453" xlink:href="#DejaVuSans-40"/>
      <use x="655.953125" xlink:href="#DejaVuSans-109"/>
      <use x="753.365234" xlink:href="#DejaVuSans-47"/>
      <use x="787.056641" xlink:href="#DejaVuSans-115"/>
      <use x="839.15625" xlink:href="#DejaVuSans-41"/>
     </g>
    </g>
   </g>
   <g id="matplotlib.axis_2">
    <g id="ytick_1">
     <g id="line2d_10">
      <defs>
       <path d="M 0 0 
L -3.5 0 
" id="m615eed2e24" style="stroke:#000000;stroke-width:0.8;"/>
      </defs>
      <g>
       <use style="stroke:#000000;stroke-width:0.8;" x="43.78125" xlink:href="#m615eed2e24" y="268.03748"/>
      </g>
     </g>
     <g id="text_11">
      <!-- 0.0 -->
      <g transform="translate(20.878125 271.836699)scale(0.1 -0.1)">
       <defs>
        <path d="M 10.6875 12.40625 
L 21 12.40625 
L 21 0 
L 10.6875 0 
z
" id="DejaVuSans-46"/>
       </defs>
       <use xlink:href="#DejaVuSans-48"/>
       <use x="63.623047" xlink:href="#DejaVuSans-46"/>
       <use x="95.410156" xlink:href="#DejaVuSans-48"/>
      </g>
     </g>
    </g>
    <g id="ytick_2">
     <g id="line2d_11">
      <g>
       <use style="stroke:#000000;stroke-width:0.8;" x="43.78125" xlink:href="#m615eed2e24" y="219.244687"/>
      </g>
     </g>
     <g id="text_12">
      <!-- 0.2 -->
      <g transform="translate(20.878125 223.043906)scale(0.1 -0.1)">
       <use xlink:href="#DejaVuSans-48"/>
       <use x="63.623047" xlink:href="#DejaVuSans-46"/>
       <use x="95.410156" xlink:href="#DejaVuSans-50"/>
      </g>
     </g>
    </g>
    <g id="ytick_3">
     <g id="line2d_12">
      <g>
       <use style="stroke:#000000;stroke-width:0.8;" x="43.78125" xlink:href="#m615eed2e24" y="170.451894"/>
      </g>
     </g>
     <g id="text_13">
      <!-- 0.4 -->
      <g transform="translate(20.878125 174.251113)scale(0.1 -0.1)">
       <use xlink:href="#DejaVuSans-48"/>
       <use x="63.623047" xlink:href="#DejaVuSans-46"/>
       <use x="95.410156" xlink:href="#DejaVuSans-52"/>
      </g>
     </g>
    </g>
    <g id="ytick_4">
     <g id="line2d_13">
      <g>
       <use style="stroke:#000000;stroke-width:0.8;" x="43.78125" xlink:href="#m615eed2e24" y="121.659101"/>
      </g>
     </g>
     <g id="text_14">
      <!-- 0.6 -->
      <g transform="translate(20.878125 125.45832)scale(0.1 -0.1)">
       <use xlink:href="#DejaVuSans-48"/>
       <use x="63.623047" xlink:href="#DejaVuSans-46"/>
       <use x="95.410156" xlink:href="#DejaVuSans-54"/>
      </g>
     </g>
    </g>
    <g id="ytick_5">
     <g id="line2d_14">
      <g>
       <use style="stroke:#000000;stroke-width:0.8;" x="43.78125" xlink:href="#m615eed2e24" y="72.866308"/>
      </g>
     </g>
     <g id="text_15">
      <!-- 0.8 -->
      <g transform="translate(20.878125 76.665527)scale(0.1 -0.1)">
       <use xlink:href="#DejaVuSans-48"/>
       <use x="63.623047" xlink:href="#DejaVuSans-46"/>
       <use x="95.410156" xlink:href="#DejaVuSans-56"/>
      </g>
     </g>
    </g>
    <g id="ytick_6">
     <g id="line2d_15">
      <g>
       <use style="stroke:#000000;stroke-width:0.8;" x="43.78125" xlink:href="#m615eed2e24" y="24.073516"/>
      </g>
     </g>
     <g id="text_16">
      <!-- 1.0 -->
      <g transform="translate(20.878125 27.872734)scale(0.1 -0.1)">
       <use xlink:href="#DejaVuSans-49"/>
       <use x="63.623047" xlink:href="#DejaVuSans-46"/>
       <use x="95.410156" xlink:href="#DejaVuSans-48"/>
      </g>
     </g>
    </g>
    <g id="text_17">
     <!-- Wind-current correlation -->
     <g transform="translate(14.798438 229.075469)rotate(-90)scale(0.1 -0.1)">
      <defs>
       <path d="M 4.890625 31.390625 
L 31.203125 31.390625 
L 31.203125 23.390625 
L 4.890625 23.390625 
z
" id="DejaVuSans-45"/>
       <path d="M 48.78125 52.59375 
L 48.78125 44.1875 
Q 44.96875 46.296875 41.140625 47.34375 
Q 37.3125 48.390625 33.40625 48.390625 
Q 24.65625 48.390625 19.8125 42.84375 
Q 14.984375 37.3125 14.984375 27.296875 
Q 14.984375 17.28125 19.8125 11.734375 
Q 24.65625 6.203125 33.40625 6.203125 
Q 37.3125 6.203125 41.140625 7.25 
Q 44.96875 8.296875 48.78125 10.40625 
L 48.78125 2.09375 
Q 45.015625 0.34375 40.984375 -0.53125 
Q 36.96875 -1.421875 32.421875 -1.421875 
Q 20.0625 -1.421875 12.78125 6.34375 
Q 5.515625 14.109375 5.515625 27.296875 
Q 5.515625 40.671875 12.859375 48.328125 
Q 20.21875 56 33.015625 56 
Q 37.15625 56 41.109375 55.140625 
Q 45.0625 54.296875 48.78125 52.59375 
z
" id="DejaVuSans-99"/>
       <path d="M 8.5 21.578125 
L 8.5 54.6875 
L 17.484375 54.6875 
L 17.484375 21.921875 
Q 17.484375 14.15625 20.5 10.265625 
Q 23.53125 6.390625 29.59375 6.390625 
Q 36.859375 6.390625 41.078125 11.03125 
Q 45.3125 15.671875 45.3125 23.6875 
L 45.3125 54.6875 
L 54.296875 54.6875 
L 54.296875 0 
L 45.3125 0 
L 45.3125 8.40625 
Q 42.046875 3.421875 37.71875 1 
Q 33.40625 -1.421875 27.6875 -1.421875 
Q 18.265625 -1.421875 13.375 4.4375 
Q 8.5 10.296875 8.5 21.578125 
z
M 31.109375 56 
z
" id="DejaVuSans-117"/>
       <path d="M 41.109375 46.296875 
Q 39.59375 47.171875 37.8125 47.578125 
Q 36.03125 48 33.890625 48 
Q 26.265625 48 22.1875 43.046875 
Q 18.109375 38.09375 18.109375 28.8125 
L 18.109375 0 
L 9.078125 0 
L 9.078125 54.6875 
L 18.109375 54.6875 
L 18.109375 46.1875 
Q 20.953125 51.171875 25.484375 53.578125 
Q 30.03125 56 36.53125 56 
Q 37.453125 56 38.578125 55.875 
Q 39.703125 55.765625 41.0625 55.515625 
z
" id="DejaVuSans-114"/>
       <path d="M 18.3125 70.21875 
L 18.3125 54.6875 
L 36.8125 54.6875 
L 36.8125 47.703125 
L 18.3125 47.703125 
L 18.3125 18.015625 
Q 18.3125 11.328125 20.140625 9.421875 
Q 21.96875 7.515625 27.59375 7.515625 
L 36.8125 7.515625 
L 36.8125 0 
L 27.59375 0 
Q 17.1875 0 13.234375 3.875 
Q 9.28125 7.765625 9.28125 18.015625 
L 9.28125 47.703125 
L 2.6875 47.703125 
L 2.6875 54.6875 
L 9.28125 54.6875 
L 9.28125 70.21875 
z
" id="DejaVuSans-116"/>
       <path d="M 30.609375 48.390625 
Q 23.390625 48.390625 19.1875 42.75 
Q 14.984375 37.109375 14.984375 27.296875 
Q 14.984375 17.484375 19.15625 11.84375 
Q 23.34375 6.203125 30.609375 6.203125 
Q 37.796875 6.203125 41.984375 11.859375 
Q 46.1875 17.53125 46.1875 27.296875 
Q 46.1875 37.015625 41.984375 42.703125 
Q 37.796875 48.390625 30.609375 48.390625 
z
M 30.609375 56 
Q 42.328125 56 49.015625 48.375 
Q 55.71875 40.765625 55.71875 27.296875 
Q 55.71875 13.875 49.015625 6.21875 
Q 42.328125 -1.421875 30.609375 -1.421875 
Q 18.84375 -1.421875 12.171875 6.21875 
Q 5.515625 13.875 5.515625 27.296875 
Q 5.515625 40.765625 12.171875 48.375 
Q 18.84375 56 30.609375 56 
z
" id="DejaVuSans-111"/>
       <path d="M 9.421875 75.984375 
L 18.40625 75.984375 
L 18.40625 0 
L 9.421875 0 
z
" id="DejaVuSans-108"/>
       <path d="M 34.28125 27.484375 
Q 23.390625 27.484375 19.1875 25 
Q 14.984375 22.515625 14.984375 16.5 
Q 14.984375 11.71875 18.140625 8.90625 
Q 21.296875 6.109375 26.703125 6.109375 
Q 34.1875 6.109375 38.703125 11.40625 
Q 43.21875 16.703125 43.21875 25.484375 
L 43.21875 27.484375 
z
M 52.203125 31.203125 
L 52.203125 0 
L 43.21875 0 
L 43.21875 8.296875 
Q 40.140625 3.328125 35.546875 0.953125 
Q 30.953125 -1.421875 24.3125 -1.421875 
Q 15.921875 -1.421875 10.953125 3.296875 
Q 6 8.015625 6 15.921875 
Q 6 25.140625 12.171875 29.828125 
Q 18.359375 34.515625 30.609375 34.515625 
L 43.21875 34.515625 
L 43.21875 35.40625 
Q 43.21875 41.609375 39.140625 45 
Q 35.0625 48.390625 27.6875 48.390625 
Q 23 48.390625 18.546875 47.265625 
Q 14.109375 46.140625 10.015625 43.890625 
L 10.015625 52.203125 
Q 14.9375 54.109375 19.578125 55.046875 
Q 24.21875 56 28.609375 56 
Q 40.484375 56 46.34375 49.84375 
Q 52.203125 43.703125 52.203125 31.203125 
z
" id="DejaVuSans-97"/>
      </defs>
      <use xlink:href="#DejaVuSans-87"/>
      <use x="96.626953" xlink:href="#DejaVuSans-105"/>
      <use x="124.410156" xlink:href="#DejaVuSans-110"/>
      <use x="187.789062" xlink:href="#DejaVuSans-100"/>
      <use x="251.265625" xlink:href="#DejaVuSans-45"/>
      <use x="287.349609" xlink:href="#DejaVuSans-99"/>
      <use x="342.330078" xlink:href="#DejaVuSans-117"/>
      <use x="405.708984" xlink:href="#DejaVuSans-114"/>
      <use x="445.072266" xlink:href="#DejaVuSans-114"/>
      <use x="483.935547" xlink:href="#DejaVuSans-101"/>
      <use x="545.458984" xlink:href="#DejaVuSans-110"/>
      <use x="608.837891" xlink:href="#DejaVuSans-116"/>
      <use x="648.046875" xlink:href="#DejaVuSans-32"/>
      <use x="679.833984" xlink:href="#DejaVuSans-99"/>
      <use x="734.814453" xlink:href="#DejaVuSans-111"/>
      <use x="795.996094" xlink:href="#DejaVuSans-114"/>
      <use x="835.359375" xlink:href="#DejaVuSans-114"/>
      <use x="874.222656" xlink:href="#DejaVuSans-101"/>
      <use x="935.746094" xlink:href="#DejaVuSans-108"/>
      <use x="963.529297" xlink:href="#DejaVuSans-97"/>
      <use x="1024.808594" xlink:href="#DejaVuSans-116"/>
      <use x="1064.017578" xlink:href="#DejaVuSans-105"/>
      <use x="1091.800781" xlink:href="#DejaVuSans-111"/>
      <use x="1152.982422" xlink:href="#DejaVuSans-110"/>
     </g>
    </g>
   </g>
   <g id="LineCollection_1">
    <path clip-path="url(#p8db33b565f)" d="M 67.299432 278.457457 
L 90.586289 278.457457 
" style="fill:none;stroke:#d62728;stroke-width:5;"/>
    <path clip-path="url(#p8db33b565f)" d="M 90.586289 270.175907 
L 113.873147 270.175907 
" style="fill:none;stroke:#d62728;stroke-width:5;"/>
    <path clip-path="url(#p8db33b565f)" d="M 113.873147 284.99647 
L 137.160004 284.99647 
" style="fill:none;stroke:#d62728;stroke-width:5;"/>
    <path clip-path="url(#p8db33b565f)" d="M 137.160004 268.872015 
L 160.446862 268.872015 
" style="fill:none;stroke:#d62728;stroke-width:5;"/>
    <path clip-path="url(#p8db33b565f)" d="M 160.446862 262.753109 
L 183.73372 262.753109 
" style="fill:none;stroke:#d62728;stroke-width:5;"/>
    <path clip-path="url(#p8db33b565f)" d="M 183.73372 258.865594 
L 207.020577 258.865594 
" style="fill:none;stroke:#d62728;stroke-width:5;"/>
    <path clip-path="url(#p8db33b565f)" d="M 207.020577 249.547167 
L 230.307435 249.547167 
" style="fill:none;stroke:#d62728;stroke-width:5;"/>
    <path clip-path="url(#p8db33b565f)" d="M 230.307435 255.752761 
L 253.594292 255.752761 
" style="fill:none;stroke:#d62728;stroke-width:5;"/>
    <path clip-path="url(#p8db33b565f)" d="M 253.594292 256.847041 
L 276.88115 256.847041 
" style="fill:none;stroke:#d62728;stroke-width:5;"/>
    <path clip-path="url(#p8db33b565f)" d="M 276.88115 230.664855 
L 300.168007 230.664855 
" style="fill:none;stroke:#d62728;stroke-width:5;"/>
    <path clip-path="url(#p8db33b565f)" d="M 300.168007 202.571303 
L 323.454865 202.571303 
" style="fill:none;stroke:#d62728;stroke-width:5;"/>
    <path clip-path="url(#p8db33b565f)" d="M 323.454865 204.479327 
L 346.741722 204.479327 
" style="fill:none;stroke:#d62728;stroke-width:5;"/>
    <path clip-path="url(#p8db33b565f)" d="M 346.741722 195.071344 
L 370.02858 195.071344 
" style="fill:none;stroke:#d62728;stroke-width:5;"/>
    <path clip-path="url(#p8db33b565f)" d="M 370.02858 169.528102 
L 393.315438 169.528102 
" style="fill:none;stroke:#d62728;stroke-width:5;"/>
    <path clip-path="url(#p8db33b565f)" d="M 393.315438 148.214963 
L 416.602295 148.214963 
" style="fill:none;stroke:#d62728;stroke-width:5;"/>
    <path clip-path="url(#p8db33b565f)" d="M 416.602295 145.507267 
L 439.889153 145.507267 
" style="fill:none;stroke:#d62728;stroke-width:5;"/>
    <path clip-path="url(#p8db33b565f)" d="M 439.889153 105.866878 
L 463.17601 105.866878 
" style="fill:none;stroke:#d62728;stroke-width:5;"/>
    <path clip-path="url(#p8db33b565f)" d="M 463.17601 112.281047 
L 486.462868 112.281047 
" style="fill:none;stroke:#d62728;stroke-width:5;"/>
    <path clip-path="url(#p8db33b565f)" d="M 486.462868 123.21723 
L 509.749725 123.21723 
" style="fill:none;stroke:#d62728;stroke-width:5;"/>
    <path clip-path="url(#p8db33b565f)" d="M 509.749725 34.894645 
L 533.036583 34.894645 
" style="fill:none;stroke:#d62728;stroke-width:5;"/>
   </g>
   <g id="LineCollection_2">
    <path clip-path="url(#p8db33b565f)" d="M 68.533148 289.388481 
L 91.989644 289.388481 
" style="fill:none;stroke:#1f77b4;stroke-width:5;"/>
    <path clip-path="url(#p8db33b565f)" d="M 91.989644 255.247848 
L 115.44614 255.247848 
" style="fill:none;stroke:#1f77b4;stroke-width:5;"/>
    <path clip-path="url(#p8db33b565f)" d="M 115.44614 251.372173 
L 138.902636 251.372173 
" style="fill:none;stroke:#1f77b4;stroke-width:5;"/>
    <path clip-path="url(#p8db33b565f)" d="M 138.902636 282.927119 
L 162.359132 282.927119 
" style="fill:none;stroke:#1f77b4;stroke-width:5;"/>
    <path clip-path="url(#p8db33b565f)" d="M 162.359132 300.558043 
L 185.815628 300.558043 
" style="fill:none;stroke:#1f77b4;stroke-width:5;"/>
    <path clip-path="url(#p8db33b565f)" d="M 185.815628 301.621918 
L 209.272124 301.621918 
" style="fill:none;stroke:#1f77b4;stroke-width:5;"/>
    <path clip-path="url(#p8db33b565f)" d="M 209.272124 296.232377 
L 232.72862 296.232377 
" style="fill:none;stroke:#1f77b4;stroke-width:5;"/>
    <path clip-path="url(#p8db33b565f)" d="M 232.72862 278.949746 
L 256.185116 278.949746 
" style="fill:none;stroke:#1f77b4;stroke-width:5;"/>
    <path clip-path="url(#p8db33b565f)" d="M 256.185116 264.041149 
L 279.641612 264.041149 
" style="fill:none;stroke:#1f77b4;stroke-width:5;"/>
    <path clip-path="url(#p8db33b565f)" d="M 279.641612 244.321037 
L 303.098108 244.321037 
" style="fill:none;stroke:#1f77b4;stroke-width:5;"/>
    <path clip-path="url(#p8db33b565f)" d="M 303.098108 246.42367 
L 326.554604 246.42367 
" style="fill:none;stroke:#1f77b4;stroke-width:5;"/>
    <path clip-path="url(#p8db33b565f)" d="M 326.554604 218.11762 
L 350.0111 218.11762 
" style="fill:none;stroke:#1f77b4;stroke-width:5;"/>
    <path clip-path="url(#p8db33b565f)" d="M 350.0111 190.183769 
L 373.467596 190.183769 
" style="fill:none;stroke:#1f77b4;stroke-width:5;"/>
    <path clip-path="url(#p8db33b565f)" d="M 373.467596 199.261532 
L 396.924092 199.261532 
" style="fill:none;stroke:#1f77b4;stroke-width:5;"/>
    <path clip-path="url(#p8db33b565f)" d="M 396.924092 151.108966 
L 420.380588 151.108966 
" style="fill:none;stroke:#1f77b4;stroke-width:5;"/>
    <path clip-path="url(#p8db33b565f)" d="M 420.380588 118.066899 
L 443.837084 118.066899 
" style="fill:none;stroke:#1f77b4;stroke-width:5;"/>
    <path clip-path="url(#p8db33b565f)" d="M 443.837084 91.165982 
L 467.29358 91.165982 
" style="fill:none;stroke:#1f77b4;stroke-width:5;"/>
    <path clip-path="url(#p8db33b565f)" d="M 467.29358 67.613594 
L 490.750076 67.613594 
" style="fill:none;stroke:#1f77b4;stroke-width:5;"/>
    <path clip-path="url(#p8db33b565f)" d="M 490.750076 49.193926 
L 514.206572 49.193926 
" style="fill:none;stroke:#1f77b4;stroke-width:5;"/>
    <path clip-path="url(#p8db33b565f)" d="M 514.206572 35.429369 
L 537.663068 35.429369 
" style="fill:none;stroke:#1f77b4;stroke-width:5;"/>
   </g>
   <g id="patch_3">
    <path d="M 43.78125 314.958281 
L 43.78125 21.558281 
" style="fill:none;stroke:#000000;stroke-linecap:square;stroke-linejoin:miter;stroke-width:0.8;"/>
   </g>
   <g id="patch_4">
    <path d="M 561.18125 314.958281 
L 561.18125 21.558281 
" style="fill:none;stroke:#000000;stroke-linecap:square;stroke-linejoin:miter;stroke-width:0.8;"/>
   </g>
   <g id="patch_5">
    <path d="M 43.78125 314.958281 
L 561.18125 314.958281 
" style="fill:none;stroke:#000000;stroke-linecap:square;stroke-linejoin:miter;stroke-width:0.8;"/>
   </g>
   <g id="patch_6">
    <path d="M 43.78125 21.558281 
L 561.18125 21.558281 
" style="fill:none;stroke:#000000;stroke-linecap:square;stroke-linejoin:miter;stroke-width:0.8;"/>
   </g>
   <g id="text_18">
    <!-- Mean correlation between wind and surface current (hourly data, 2019) -->
    <g transform="translate(105.148125 15.558281)scale(0.11 -0.11)">
     <defs>
      <path d="M 9.8125 72.90625 
L 24.515625 72.90625 
L 43.109375 23.296875 
L 61.8125 72.90625 
L 76.515625 72.90625 
L 76.515625 0 
L 66.890625 0 
L 66.890625 64.015625 
L 48.09375 14.015625 
L 38.1875 14.015625 
L 19.390625 64.015625 
L 19.390625 0 
L 9.8125 0 
z
" id="DejaVuSans-77"/>
      <path d="M 48.6875 27.296875 
Q 48.6875 37.203125 44.609375 42.84375 
Q 40.53125 48.484375 33.40625 48.484375 
Q 26.265625 48.484375 22.1875 42.84375 
Q 18.109375 37.203125 18.109375 27.296875 
Q 18.109375 17.390625 22.1875 11.75 
Q 26.265625 6.109375 33.40625 6.109375 
Q 40.53125 6.109375 44.609375 11.75 
Q 48.6875 17.390625 48.6875 27.296875 
z
M 18.109375 46.390625 
Q 20.953125 51.265625 25.265625 53.625 
Q 29.59375 56 35.59375 56 
Q 45.5625 56 51.78125 48.09375 
Q 58.015625 40.1875 58.015625 27.296875 
Q 58.015625 14.40625 51.78125 6.484375 
Q 45.5625 -1.421875 35.59375 -1.421875 
Q 29.59375 -1.421875 25.265625 0.953125 
Q 20.953125 3.328125 18.109375 8.203125 
L 18.109375 0 
L 9.078125 0 
L 9.078125 75.984375 
L 18.109375 75.984375 
z
" id="DejaVuSans-98"/>
      <path d="M 4.203125 54.6875 
L 13.1875 54.6875 
L 24.421875 12.015625 
L 35.59375 54.6875 
L 46.1875 54.6875 
L 57.421875 12.015625 
L 68.609375 54.6875 
L 77.59375 54.6875 
L 63.28125 0 
L 52.6875 0 
L 40.921875 44.828125 
L 29.109375 0 
L 18.5 0 
z
" id="DejaVuSans-119"/>
      <path d="M 37.109375 75.984375 
L 37.109375 68.5 
L 28.515625 68.5 
Q 23.6875 68.5 21.796875 66.546875 
Q 19.921875 64.59375 19.921875 59.515625 
L 19.921875 54.6875 
L 34.71875 54.6875 
L 34.71875 47.703125 
L 19.921875 47.703125 
L 19.921875 0 
L 10.890625 0 
L 10.890625 47.703125 
L 2.296875 47.703125 
L 2.296875 54.6875 
L 10.890625 54.6875 
L 10.890625 58.5 
Q 10.890625 67.625 15.140625 71.796875 
Q 19.390625 75.984375 28.609375 75.984375 
z
" id="DejaVuSans-102"/>
      <path d="M 54.890625 33.015625 
L 54.890625 0 
L 45.90625 0 
L 45.90625 32.71875 
Q 45.90625 40.484375 42.875 44.328125 
Q 39.84375 48.1875 33.796875 48.1875 
Q 26.515625 48.1875 22.3125 43.546875 
Q 18.109375 38.921875 18.109375 30.90625 
L 18.109375 0 
L 9.078125 0 
L 9.078125 75.984375 
L 18.109375 75.984375 
L 18.109375 46.1875 
Q 21.34375 51.125 25.703125 53.5625 
Q 30.078125 56 35.796875 56 
Q 45.21875 56 50.046875 50.171875 
Q 54.890625 44.34375 54.890625 33.015625 
z
" id="DejaVuSans-104"/>
      <path d="M 32.171875 -5.078125 
Q 28.375 -14.84375 24.75 -17.8125 
Q 21.140625 -20.796875 15.09375 -20.796875 
L 7.90625 -20.796875 
L 7.90625 -13.28125 
L 13.1875 -13.28125 
Q 16.890625 -13.28125 18.9375 -11.515625 
Q 21 -9.765625 23.484375 -3.21875 
L 25.09375 0.875 
L 2.984375 54.6875 
L 12.5 54.6875 
L 29.59375 11.921875 
L 46.6875 54.6875 
L 56.203125 54.6875 
z
" id="DejaVuSans-121"/>
      <path d="M 11.71875 12.40625 
L 22.015625 12.40625 
L 22.015625 4 
L 14.015625 -11.625 
L 7.71875 -11.625 
L 11.71875 4 
z
" id="DejaVuSans-44"/>
      <path d="M 10.984375 1.515625 
L 10.984375 10.5 
Q 14.703125 8.734375 18.5 7.8125 
Q 22.3125 6.890625 25.984375 6.890625 
Q 35.75 6.890625 40.890625 13.453125 
Q 46.046875 20.015625 46.78125 33.40625 
Q 43.953125 29.203125 39.59375 26.953125 
Q 35.25 24.703125 29.984375 24.703125 
Q 19.046875 24.703125 12.671875 31.3125 
Q 6.296875 37.9375 6.296875 49.421875 
Q 6.296875 60.640625 12.9375 67.421875 
Q 19.578125 74.21875 30.609375 74.21875 
Q 43.265625 74.21875 49.921875 64.515625 
Q 56.59375 54.828125 56.59375 36.375 
Q 56.59375 19.140625 48.40625 8.859375 
Q 40.234375 -1.421875 26.421875 -1.421875 
Q 22.703125 -1.421875 18.890625 -0.6875 
Q 15.09375 0.046875 10.984375 1.515625 
z
M 30.609375 32.421875 
Q 37.25 32.421875 41.125 36.953125 
Q 45.015625 41.5 45.015625 49.421875 
Q 45.015625 57.28125 41.125 61.84375 
Q 37.25 66.40625 30.609375 66.40625 
Q 23.96875 66.40625 20.09375 61.84375 
Q 16.21875 57.28125 16.21875 49.421875 
Q 16.21875 41.5 20.09375 36.953125 
Q 23.96875 32.421875 30.609375 32.421875 
z
" id="DejaVuSans-57"/>
     </defs>
     <use xlink:href="#DejaVuSans-77"/>
     <use x="86.279297" xlink:href="#DejaVuSans-101"/>
     <use x="147.802734" xlink:href="#DejaVuSans-97"/>
     <use x="209.082031" xlink:href="#DejaVuSans-110"/>
     <use x="272.460938" xlink:href="#DejaVuSans-32"/>
     <use x="304.248047" xlink:href="#DejaVuSans-99"/>
     <use x="359.228516" xlink:href="#DejaVuSans-111"/>
     <use x="420.410156" xlink:href="#DejaVuSans-114"/>
     <use x="459.773438" xlink:href="#DejaVuSans-114"/>
     <use x="498.636719" xlink:href="#DejaVuSans-101"/>
     <use x="560.160156" xlink:href="#DejaVuSans-108"/>
     <use x="587.943359" xlink:href="#DejaVuSans-97"/>
     <use x="649.222656" xlink:href="#DejaVuSans-116"/>
     <use x="688.431641" xlink:href="#DejaVuSans-105"/>
     <use x="716.214844" xlink:href="#DejaVuSans-111"/>
     <use x="777.396484" xlink:href="#DejaVuSans-110"/>
     <use x="840.775391" xlink:href="#DejaVuSans-32"/>
     <use x="872.5625" xlink:href="#DejaVuSans-98"/>
     <use x="936.039062" xlink:href="#DejaVuSans-101"/>
     <use x="997.5625" xlink:href="#DejaVuSans-116"/>
     <use x="1036.771484" xlink:href="#DejaVuSans-119"/>
     <use x="1118.558594" xlink:href="#DejaVuSans-101"/>
     <use x="1180.082031" xlink:href="#DejaVuSans-101"/>
     <use x="1241.605469" xlink:href="#DejaVuSans-110"/>
     <use x="1304.984375" xlink:href="#DejaVuSans-32"/>
     <use x="1336.771484" xlink:href="#DejaVuSans-119"/>
     <use x="1418.558594" xlink:href="#DejaVuSans-105"/>
     <use x="1446.341797" xlink:href="#DejaVuSans-110"/>
     <use x="1509.720703" xlink:href="#DejaVuSans-100"/>
     <use x="1573.197266" xlink:href="#DejaVuSans-32"/>
     <use x="1604.984375" xlink:href="#DejaVuSans-97"/>
     <use x="1666.263672" xlink:href="#DejaVuSans-110"/>
     <use x="1729.642578" xlink:href="#DejaVuSans-100"/>
     <use x="1793.119141" xlink:href="#DejaVuSans-32"/>
     <use x="1824.90625" xlink:href="#DejaVuSans-115"/>
     <use x="1877.005859" xlink:href="#DejaVuSans-117"/>
     <use x="1940.384766" xlink:href="#DejaVuSans-114"/>
     <use x="1981.498047" xlink:href="#DejaVuSans-102"/>
     <use x="2016.703125" xlink:href="#DejaVuSans-97"/>
     <use x="2077.982422" xlink:href="#DejaVuSans-99"/>
     <use x="2132.962891" xlink:href="#DejaVuSans-101"/>
     <use x="2194.486328" xlink:href="#DejaVuSans-32"/>
     <use x="2226.273438" xlink:href="#DejaVuSans-99"/>
     <use x="2281.253906" xlink:href="#DejaVuSans-117"/>
     <use x="2344.632812" xlink:href="#DejaVuSans-114"/>
     <use x="2383.996094" xlink:href="#DejaVuSans-114"/>
     <use x="2422.859375" xlink:href="#DejaVuSans-101"/>
     <use x="2484.382812" xlink:href="#DejaVuSans-110"/>
     <use x="2547.761719" xlink:href="#DejaVuSans-116"/>
     <use x="2586.970703" xlink:href="#DejaVuSans-32"/>
     <use x="2618.757812" xlink:href="#DejaVuSans-40"/>
     <use x="2657.771484" xlink:href="#DejaVuSans-104"/>
     <use x="2721.150391" xlink:href="#DejaVuSans-111"/>
     <use x="2782.332031" xlink:href="#DejaVuSans-117"/>
     <use x="2845.710938" xlink:href="#DejaVuSans-114"/>
     <use x="2886.824219" xlink:href="#DejaVuSans-108"/>
     <use x="2914.607422" xlink:href="#DejaVuSans-121"/>
     <use x="2973.787109" xlink:href="#DejaVuSans-32"/>
     <use x="3005.574219" xlink:href="#DejaVuSans-100"/>
     <use x="3069.050781" xlink:href="#DejaVuSans-97"/>
     <use x="3130.330078" xlink:href="#DejaVuSans-116"/>
     <use x="3169.539062" xlink:href="#DejaVuSans-97"/>
     <use x="3230.818359" xlink:href="#DejaVuSans-44"/>
     <use x="3262.605469" xlink:href="#DejaVuSans-32"/>
     <use x="3294.392578" xlink:href="#DejaVuSans-50"/>
     <use x="3358.015625" xlink:href="#DejaVuSans-48"/>
     <use x="3421.638672" xlink:href="#DejaVuSans-49"/>
     <use x="3485.261719" xlink:href="#DejaVuSans-57"/>
     <use x="3548.884766" xlink:href="#DejaVuSans-41"/>
    </g>
   </g>
  </g>
  <g id="legend_1">
   <g id="patch_7">
    <path d="M 434.98125 315.758281 
L 542.290625 315.758281 
Q 544.290625 315.758281 544.290625 313.758281 
L 544.290625 285.402031 
Q 544.290625 283.402031 542.290625 283.402031 
L 434.98125 283.402031 
Q 432.98125 283.402031 432.98125 285.402031 
L 432.98125 313.758281 
Q 432.98125 315.758281 434.98125 315.758281 
z
" style="fill:#ffffff;opacity:0.8;stroke:#cccccc;stroke-linejoin:miter;"/>
   </g>
   <g id="line2d_16">
    <path d="M 436.98125 291.500469 
L 456.98125 291.500469 
" style="fill:none;stroke:#d62728;stroke-width:5;"/>
   </g>
   <g id="text_19">
    <!-- Davies Reef -->
    <g transform="translate(464.98125 295.000469)scale(0.1 -0.1)">
     <defs>
      <path d="M 19.671875 64.796875 
L 19.671875 8.109375 
L 31.59375 8.109375 
Q 46.6875 8.109375 53.6875 14.9375 
Q 60.6875 21.78125 60.6875 36.53125 
Q 60.6875 51.171875 53.6875 57.984375 
Q 46.6875 64.796875 31.59375 64.796875 
z
M 9.8125 72.90625 
L 30.078125 72.90625 
Q 51.265625 72.90625 61.171875 64.09375 
Q 71.09375 55.28125 71.09375 36.53125 
Q 71.09375 17.671875 61.125 8.828125 
Q 51.171875 0 30.078125 0 
L 9.8125 0 
z
" id="DejaVuSans-68"/>
      <path d="M 2.984375 54.6875 
L 12.5 54.6875 
L 29.59375 8.796875 
L 46.6875 54.6875 
L 56.203125 54.6875 
L 35.6875 0 
L 23.484375 0 
z
" id="DejaVuSans-118"/>
      <path d="M 44.390625 34.1875 
Q 47.5625 33.109375 50.5625 29.59375 
Q 53.5625 26.078125 56.59375 19.921875 
L 66.609375 0 
L 56 0 
L 46.6875 18.703125 
Q 43.0625 26.03125 39.671875 28.421875 
Q 36.28125 30.8125 30.421875 30.8125 
L 19.671875 30.8125 
L 19.671875 0 
L 9.8125 0 
L 9.8125 72.90625 
L 32.078125 72.90625 
Q 44.578125 72.90625 50.734375 67.671875 
Q 56.890625 62.453125 56.890625 51.90625 
Q 56.890625 45.015625 53.6875 40.46875 
Q 50.484375 35.9375 44.390625 34.1875 
z
M 19.671875 64.796875 
L 19.671875 38.921875 
L 32.078125 38.921875 
Q 39.203125 38.921875 42.84375 42.21875 
Q 46.484375 45.515625 46.484375 51.90625 
Q 46.484375 58.296875 42.84375 61.546875 
Q 39.203125 64.796875 32.078125 64.796875 
z
" id="DejaVuSans-82"/>
     </defs>
     <use xlink:href="#DejaVuSans-68"/>
     <use x="77.001953" xlink:href="#DejaVuSans-97"/>
     <use x="138.28125" xlink:href="#DejaVuSans-118"/>
     <use x="197.460938" xlink:href="#DejaVuSans-105"/>
     <use x="225.244141" xlink:href="#DejaVuSans-101"/>
     <use x="286.767578" xlink:href="#DejaVuSans-115"/>
     <use x="338.867188" xlink:href="#DejaVuSans-32"/>
     <use x="370.654297" xlink:href="#DejaVuSans-82"/>
     <use x="435.636719" xlink:href="#DejaVuSans-101"/>
     <use x="497.160156" xlink:href="#DejaVuSans-101"/>
     <use x="558.683594" xlink:href="#DejaVuSans-102"/>
    </g>
   </g>
   <g id="line2d_17">
    <path d="M 436.98125 306.178594 
L 456.98125 306.178594 
" style="fill:none;stroke:#1f77b4;stroke-width:5;"/>
   </g>
   <g id="text_20">
    <!-- Myrmidon Reef -->
    <g transform="translate(464.98125 309.678594)scale(0.1 -0.1)">
     <use xlink:href="#DejaVuSans-77"/>
     <use x="86.279297" xlink:href="#DejaVuSans-121"/>
     <use x="145.458984" xlink:href="#DejaVuSans-114"/>
     <use x="184.822266" xlink:href="#DejaVuSans-109"/>
     <use x="282.234375" xlink:href="#DejaVuSans-105"/>
     <use x="310.017578" xlink:href="#DejaVuSans-100"/>
     <use x="373.494141" xlink:href="#DejaVuSans-111"/>
     <use x="434.675781" xlink:href="#DejaVuSans-110"/>
     <use x="498.054688" xlink:href="#DejaVuSans-32"/>
     <use x="529.841797" xlink:href="#DejaVuSans-82"/>
     <use x="594.824219" xlink:href="#DejaVuSans-101"/>
     <use x="656.347656" xlink:href="#DejaVuSans-101"/>
     <use x="717.871094" xlink:href="#DejaVuSans-102"/>
    </g>
   </g>
  </g>
 </g>
 <defs>
  <clipPath id="p8db33b565f">
   <rect height="293.4" width="517.4" x="43.78125" y="21.558281"/>
  </clipPath>
 </defs>
</svg>
